{"title":"Hamari Adhuri Kahani (2015) DvD Scr Rip - XviD - [1CD] - Team Ic","uid":12019453,"size":737313650,"categoryP":"video","categoryS":"movies","magnet":"?xt=urn:btih:a54ebebc3a6d5dee1168ec60f609756d0b2188a2&amp;dn=Hamari+Adhuri+Kahani+%282015%29+DvD+Scr+Rip+-+XviD+-+%5B1CD%5D+-+Team+Ic&amp;tr=udp%3A%2F%2Ftracker.openbittorrent.com%3A80&amp;tr=udp%3A%2F%2Fopen.demonii.com%3A1337&amp;tr=udp%3A%2F%2Ftracker.coppersurfer.tk%3A6969&amp;tr=udp%3A%2F%2Fexodus.desync.com%3A6969","seeders":17,"leechers":5,"uploader":"SS132203","files":3,"time":1434391540,"description":"Hamari Adhuri Kahani (2015) DvD Scr Rip - XviD - [1CD] - Team IcTv\n &lt;a href=&quot;\nhttp://imgsparrow.co/image/47&quot; rel=&quot;nofollow&quot; target=&quot;_NEW&quot;&gt;\nhttp://imgsparrow.co/image/47&lt;/a&gt;\n &lt;a href=&quot;\nhttp://imgsparrow.co/image/n4&quot; rel=&quot;nofollow&quot; target=&quot;_NEW&quot;&gt;\nhttp://imgsparrow.co/image/n4&lt;/a&gt;\n\nInfo : - \n\nAll Credit Goes To Intellect Clever &amp; IcTv (Thank Them Not Me)\nSample Within Torrent\n\nFormat                      : AVI\nFormat/Info                 : Audio Video Interleave\nFile size                   : 693 MiB\nDuration                    : 2h 1mn\nOverall bit rate            : 795 Kbps\n\nVideo\nID                          : 0\nFormat                      : MPEG-4 Visual\nFormat profile              : Advanced Simple@L5\nFormat settings, BVOP       : 2\nFormat settings, QPel       : No\nFormat settings, GMC        : No warppoints\nFormat settings, Matrix     : Default (H.263)\nCodec ID                    : XVID\nCodec ID/Hint               : XviD\nDuration                    : 2h 1mn\nBit rate                    : 660 Kbps\nWidth                       : 640 pixels\nHeight                      : 272 pixels\nDisplay aspect ratio        : 2.35:1\nFrame rate                  : 29.970 fps\nColor space                 : YUV\nChroma subsampling          : 4:2:0\nBit depth                   : 8 bits\nScan type                   : Progressive\nCompression mode            : Lossy\nBits/(Pixel*Frame)          : 0.126\nStream size                 : 575 MiB (83%)\n\nAudio\nID                          : 1\nFormat                      : MPEG Audio\nFormat version              : Version 1\nFormat profile              : Layer 3\nMode                        : Joint stereo\nMode extension              : MS Stereo\nCodec ID                    : 55\nCodec ID/Hint               : MP3\nDuration                    : 2h 1mn\nBit rate mode               : Constant\nBit rate                    : 128 Kbps\nChannel(s)                  : 2 channels\nSampling rate               : 48.0 KHz\nCompression mode            : Lossy\nStream size                 : 112 MiB (16%)\n\nScreens : - \n &lt;a href=&quot;\nhttp://imgsparrow.co/image/5A&quot; rel=&quot;nofollow&quot; target=&quot;_NEW&quot;&gt;\nhttp://imgsparrow.co/image/5A&lt;/a&gt; &lt;a href=&quot;\nhttp://imgsparrow.co/image/5Q&quot; rel=&quot;nofollow&quot; target=&quot;_NEW&quot;&gt;\nhttp://imgsparrow.co/image/5Q&lt;/a&gt; &lt;a href=&quot;\nhttp://imgsparrow.co/image/5Z&quot; rel=&quot;nofollow&quot; target=&quot;_NEW&quot;&gt;\nhttp://imgsparrow.co/image/5Z&lt;/a&gt; &lt;a href=&quot;\nhttp://imgsparrow.co/image/5a&quot; rel=&quot;nofollow&quot; target=&quot;_NEW&quot;&gt;\nhttp://imgsparrow.co/image/5a&lt;/a&gt; &lt;a href=&quot;\nhttp://imgsparrow.co/image/5f&quot; rel=&quot;nofollow&quot; target=&quot;_NEW&quot;&gt;\nhttp://imgsparrow.co/image/5f&lt;/a&gt; &lt;a href=&quot;\nhttp://imgsparrow.co/image/5I&quot; rel=&quot;nofollow&quot; target=&quot;_NEW&quot;&gt;\nhttp://imgsparrow.co/image/5I&lt;/a&gt; &lt;a href=&quot;\nhttp://imgsparrow.co/image/5P&quot; rel=&quot;nofollow&quot; target=&quot;_NEW&quot;&gt;\nhttp://imgsparrow.co/image/5P&lt;/a&gt; &lt;a href=&quot;\nhttp://imgsparrow.co/image/5W&quot; rel=&quot;nofollow&quot; target=&quot;_NEW&quot;&gt;\nhttp://imgsparrow.co/image/5W&lt;/a&gt; &lt;a href=&quot;\nhttp://imgsparrow.co/image/5X&quot; rel=&quot;nofollow&quot; target=&quot;_NEW&quot;&gt;\nhttp://imgsparrow.co/image/5X&lt;/a&gt; &lt;a href=&quot;\nhttp://imgsparrow.co/image/5Y&quot; rel=&quot;nofollow&quot; target=&quot;_NEW&quot;&gt;\nhttp://imgsparrow.co/image/5Y&lt;/a&gt;\n &lt;a href=&quot;\nhttp://imgsparrow.co/image/N2&quot; rel=&quot;nofollow&quot; target=&quot;_NEW&quot;&gt;\nhttp://imgsparrow.co/image/N2&lt;/a&gt;","torrent":{"xt":"urn:btih:a54ebebc3a6d5dee1168ec60f609756d0b2188a2","amp;dn":"Hamari+Adhuri+Kahani+%282015%29+DvD+Scr+Rip+-+XviD+-+%5B1CD%5D+-+Team+Ic","amp;tr":["udp%3A%2F%2Ftracker.openbittorrent.com%3A80","udp%3A%2F%2Fopen.demonii.com%3A1337","udp%3A%2F%2Ftracker.coppersurfer.tk%3A6969","udp%3A%2F%2Fexodus.desync.com%3A6969"],"infoHash":"a54ebebc3a6d5dee1168ec60f609756d0b2188a2","infoHashBuffer":{"type":"Buffer","data":[165,78,190,188,58,109,93,238,17,104,236,96,246,9,117,109,11,33,136,162]},"announce":[],"urlList":[]}}